<svg xmlns="http://www.w3.org/2000/svg" width="92.5" height="35.923" viewBox="0 0 92.5 35.923">
  <g id="Group_16204" data-name="Group 16204" transform="translate(-71.859 -423.5)">
    <path id="Path_35240" data-name="Path 35240" d="M-72.867-37.383H-69.8q.111.011.111.092v5.779a18.5,18.5,0,0,0,4.9-4.128q1.281-1.743,1.782-1.743h3.341l.111.046A20.569,20.569,0,0,1-64.4-31.558q-.139,0-.167.183l5.122,8.576-.111.046h-3.118q-.64,0-1.392-1.651-.724-1.135-3.062-5.137a18.493,18.493,0,0,1-2.561,1.376v5.32q0,.092-.111.092h-3.062q-.111,0-.111-.092V-37.291A.111.111,0,0,1-72.867-37.383Zm14.824,0h3.062q.111.011.111.092v11.833h7.628q.111.011.111.092v2.522q0,.092-.111.092h-9.3q-1.615-.161-1.615-1.33V-37.291A.1.1,0,0,1-58.043-37.383Zm13.752,0h8.964q.111.011.111.092v2.522q0,.092-.111.092h-7.127v3.9h4.9q.111.011.111.092v2.522q0,.092-.111.092h-4.9v2.614h7.127q.111.011.111.092v2.522q0,.092-.111.092h-8.8q-1.615-.161-1.615-1.33V-36.19A1.444,1.444,0,0,1-44.291-37.383Zm10.676,0H-30.5q.111.011.111.092v14.447q0,.092-.111.092h-3.118q-.111,0-.111-.092V-37.291A.1.1,0,0,1-33.614-37.383Zm13.474,0h3.062q.111.011.111.092v14.447q0,.092-.111.092h-1.559a1.761,1.761,0,0,1-1.782-1.192,29.835,29.835,0,0,0-1.837-5.274,12.717,12.717,0,0,0-3.4-4.449h-.056v10.824q0,.092-.111.092h-3.062q-.111,0-.111-.092v-14.4l.056-.092a8.141,8.141,0,0,1,4.343.917,12.416,12.416,0,0,1,3.285,2.8q.682.94,1,1.468h.056v-5.137A.1.1,0,0,1-20.14-37.383Zm5.916,0H-5.26q.111.011.111.092v2.522q0,.092-.111.092h-7.127v3.9h4.9q.111.011.111.092v2.522q0,.092-.111.092h-4.9v2.614H-5.26q.111.011.111.092v2.522q0,.092-.111.092h-8.8q-1.615-.161-1.615-1.33V-36.19A1.444,1.444,0,0,1-14.225-37.383Z" transform="translate(169.508 471.361)" fill="#132033"/>
    <path id="Union_1" data-name="Union 1" d="M11.971,33.59a19.658,19.658,0,0,1-6.291-3.8,17.521,17.521,0,0,1-4.2-5.682A16.051,16.051,0,0,1,0,17.41V0A21.314,21.314,0,0,1,7.42,1.326,19.664,19.664,0,0,1,13.711,5.1a17.412,17.412,0,0,1,4.2,5.648,15.871,15.871,0,0,1,1.476,6.662V34.923A21.211,21.211,0,0,1,11.971,33.59Z" transform="translate(72.359 424)" fill="#132033" stroke="rgba(0,0,0,0)" stroke-linecap="round" stroke-linejoin="round" stroke-miterlimit="10" stroke-width="1"/>
  </g>
</svg>
