<svg width="237" height="274" viewBox="0 0 237 274" fill="none" xmlns="http://www.w3.org/2000/svg">
<path fill-rule="evenodd" clip-rule="evenodd" d="M62.447 61.944C62.1664 66.5273 61.886 71.1107 61.606 75.694C63.406 75.175 74.886 71.794 74.177 75.221C73.668 77.676 70.442 80.333 68.798 82.042C67.2853 83.616 65.7293 85.1493 64.13 86.642C67.0633 85.518 70.0227 84.4567 73.008 83.458C75.264 82.704 77.537 81.969 79.849 81.404C80.707 81.194 83.024 80.338 83.835 80.922C85.965 82.455 74.406 93.748 72.823 95.34C75.0625 94.2926 77.353 93.3581 79.686 92.54C81.37 91.954 86.571 89.714 88.06 91.627C89.655 93.673 85.704 98.372 84.608 99.861C83.0314 101.995 81.3437 104.045 79.552 106.002C87.0124 112.865 95.6126 118.374 104.966 122.282C111.501 124.996 118.707 125.661 125.629 124.19C132.99 122.511 140.105 119.893 146.799 116.402C150.767 114.458 154.625 112.297 158.356 109.93C156.823 108.069 155.336 106.172 153.896 104.24C151.836 101.485 149.304 98.476 148.129 95.197C146.979 91.988 151.292 92.614 153.361 92.789C156.362 93.0705 159.342 93.5475 162.281 94.217C160.205 92.773 158.168 91.273 156.169 89.717C153.569 87.696 150.093 85.412 148.389 82.505C146.889 79.949 150.179 80.594 151.7 80.929C155.319 81.8263 158.865 82.9919 162.311 84.416C164.844 85.388 167.358 86.409 169.852 87.479C168.305 86.1337 166.812 84.7287 165.373 83.264C163.441 81.3 160.836 78.901 159.973 76.197C158.21 70.689 170.073 74.844 172.098 75.697C171.723 69.9917 171.349 64.286 170.976 58.58L123.85 71.12C122.15 71.572 120.028 72.556 118.257 72.608C116.657 72.656 114.717 71.934 113.157 71.635L84.731 66.204L62.449 61.946" fill="#FBE8E0"/>
<path fill-rule="evenodd" clip-rule="evenodd" d="M231.28 258.187C229.525 259.159 227.655 259.905 225.714 260.409C224.607 260.709 222.779 261.617 221.807 260.781C221.34 260.381 221.233 259.468 220.958 258.94C220.485 258.124 219.937 257.355 219.322 256.64C217.915 254.849 216.452 253.12 214.922 251.435C214.196 250.635 212.871 248.772 211.592 248.894C209.998 249.047 210.036 251.253 210.436 252.38C211.708 255.968 215.557 259.096 218.072 261.799C217.432 262.783 213.921 262.665 212.946 262.436C211.457 262.084 211.306 261.025 210.627 259.812C209.038 256.978 205.814 255.393 203.164 253.728C202.198 253.12 200.145 251.436 198.885 251.86C197.692 252.26 197.743 253.786 198.123 254.781C198.697 256.281 200.33 257.329 201.538 258.281C203.144 259.536 204.626 260.942 205.963 262.481C204.029 262.639 202.101 262.911 200.172 263.07C197.839 263.263 195.894 261.982 193.745 261.256C191.745 260.582 189.76 260.012 187.797 259.234C185.597 258.361 183.285 258.058 181.062 257.292C172.338 254.292 163.79 250.509 155.384 246.699C151.378 244.884 147.455 243.067 143.284 241.647C140.242 240.611 135.462 238.547 134.735 234.924C134.351 233.01 135.75 230.951 135.956 229.038C136.211 226.724 135.995 224.382 135.322 222.153C134.722 220.253 133.716 218.49 132.927 216.664C132.008 214.536 132.827 214.57 134.617 214.328C136.755 214.038 139.249 212.835 141.258 212.051C143.597 211.094 145.849 209.935 147.987 208.588C149.88 207.385 151.6 205.928 153.099 204.259C154.652 202.588 155.657 200.608 157.158 198.896C162.698 205.71 167.964 212.627 173.851 219.146C176.594 222.161 179.691 224.834 183.075 227.107C184.476 228.163 185.948 229.12 187.481 229.973C189.429 230.94 191.607 231.54 193.609 232.422C201.243 235.74 208.648 239.563 215.773 243.866C219.114 245.985 222.266 248.387 225.196 251.046C226.146 251.87 233.924 256.675 231.283 258.187M141.232 202.367C140.029 203.017 138.777 203.57 137.486 204.02C137.861 201.737 139.992 198.294 142.723 198.673C143.767 198.817 144.554 199.628 144.095 200.745C143.678 201.761 142.116 201.968 141.232 202.368M54.88 140.446C53.474 141.223 52.163 141.675 51.339 140.008C51.95 139.885 54.725 139.516 54.88 140.446ZM52.539 135.734C51.452 135.405 52.321 135.058 52.695 134.66C53.1812 134.092 53.7141 133.565 54.288 133.086C55.779 132.296 56.931 135.235 57.644 136.186C55.956 136.036 54.181 136.23 52.538 135.732M64.159 145.906C62.099 146.255 62.328 143.677 62.389 142.372C62.823 142.903 65.765 145.634 64.159 145.906ZM70.986 141.454C68.474 141.878 66.815 137.539 67.265 135.641C67.665 133.969 69.607 133.036 71.157 132.789C72.657 132.55 74.75 132.876 75.196 134.608C75.59 136.139 72.66 141.172 70.986 141.454ZM130.435 206.954C128.635 207.509 126.862 207.579 125.048 208.123C122.99 208.741 121.085 208.686 119.023 209.107C118.184 209.278 115.923 210.5 115.102 210.227C114.281 209.954 113.118 207.44 112.652 206.786C116.264 205.449 119.436 203.141 121.819 200.115C123.731 197.574 125.782 193.766 124.579 190.486C123.222 186.786 118.545 185.986 115.426 187.53C113.92 188.25 112.522 189.177 111.272 190.282C110.095 191.523 109.135 192.954 108.433 194.514C107.522 196.102 106.883 195.214 105.972 193.871C105.194 192.719 105.296 191.555 104.323 190.418C103.706 189.885 103.19 189.245 102.8 188.529C102.636 188.054 102.982 187.212 102.67 186.837C102.232 186.312 101.7 186.929 101.333 186.46C101.067 186.119 101.154 185.342 100.879 184.916C100.641 184.674 100.372 184.466 100.079 184.295C99.723 184.119 99.6563 183.899 99.879 183.634C99.596 183.11 99.869 182.934 99.263 182.295C98.3124 181.36 97.4795 180.313 96.783 179.176C96.476 178.639 96.506 177.843 96.124 177.376C95.6 176.738 94.724 176.834 94.276 176.044C93.876 175.344 94.143 174.109 93.481 173.47C93.1323 173.371 92.783 173.273 92.433 173.176C92.1746 172.93 92.0117 172.601 91.973 172.246C91.7041 171.621 91.402 171.01 91.068 170.417C90.179 169.273 88.984 168.217 88.199 167.01C87.374 165.743 87.811 165.529 89.245 165.075C90.5214 164.721 91.753 164.222 92.916 163.588C98.455 160.364 103.707 151.813 94.916 149.2C91.653 148.231 88.973 145.624 85.355 146.648C83.7657 147.136 82.3166 147.998 81.129 149.161C80.321 149.937 79.572 152.012 78.579 152.41C76.794 153.125 77.549 151.339 77.042 150.518C76.8 150.127 75.827 149.675 75.466 149.318C75.0275 148.882 74.6486 148.391 74.339 147.856C73.9078 147.014 73.3451 146.246 72.672 145.581C72.372 145.286 70.894 143.763 72.23 143.962C71.689 142.313 72.478 142.062 73.57 140.862C74.851 139.447 76.17 137.482 76.182 135.499C76.197 131.693 71.687 129.988 68.855 132.247C68.279 132.706 64.87 137.147 65.568 134.314C65.944 132.788 69.426 128.804 71.04 129.835C69.231 127.198 65.076 133.6 64.106 134.91C63.28 133.389 63.222 132.2 61.855 131.022C60.743 132.807 61.33 130.857 61.085 130.46C60.555 129.604 60.846 130.583 60.559 130.279C60.1007 129.914 59.6665 129.521 59.259 129.1C58.607 129.985 58.868 129.033 58.668 128.7C58.201 127.927 58.381 127.479 57.581 126.808C56.8633 126.169 55.9996 125.717 55.066 125.491C54.166 125.411 53.911 125.757 52.99 125.501C51.818 125.175 50.343 124.675 50.91 126.635C51.322 128.059 52.997 128.869 53.364 130.325C53.731 131.781 52.284 133.267 51.582 134.468C50.682 136.009 49.941 135.883 48.306 136.23C47.261 136.452 45.866 136.93 46.763 138.195C47.403 139.101 48.903 138.91 49.748 139.446C50.932 140.198 50.916 142.053 52.428 142.376C54.093 142.731 55.047 140.876 56.451 140.429C57.451 140.111 60.542 140.146 61.328 140.896C62.399 141.917 61.473 143.869 61.743 145.138C62.143 147.02 63.417 147.138 65.027 147.195C67.009 147.269 67.706 149.172 68.772 150.682C71.272 154.218 73.439 157.988 75.997 161.477C77.129 163.022 78.786 164.396 79.712 166.077C80.857 168.148 79.268 169.342 77.896 170.828C76.2165 172.829 74.6526 174.924 73.212 177.103C71.831 178.989 70.112 178.52 67.912 178.52C68.404 177.506 68.995 176.873 70.206 176.997C68.94 175.452 67.929 177.219 67.106 178.197C65.918 179.613 64.37 179.955 62.845 180.885C62.305 181.215 59.366 183.349 60.259 184.079C60.359 184.161 65.226 180.961 65.78 180.667C65.6663 181.858 65.6352 183.056 65.687 184.251C65.808 185.113 66.414 186.011 66.287 186.907C66.043 188.598 63.857 189.93 62.919 191.248C62.213 192.24 62.383 193.022 62.019 194.087C61.691 195.058 61.863 194.764 61.046 195.064C59.0527 195.615 56.9257 195.406 55.078 194.477C54.1863 193.869 53.376 193.149 52.667 192.335C52.095 191.769 50.656 190.802 50.497 190.01C50.224 188.646 52.932 186.11 53.468 184.705C54.982 180.734 52.386 177.648 48.347 177.422C49.592 176.462 51.135 177.186 52.447 177.552C50.204 174.444 46.373 177.002 44.47 179.114C43.3105 175.793 42.401 172.39 41.749 168.933C41.208 166.6 39.149 162.433 40.067 160.033C40.511 158.872 41.767 158.224 42.631 157.419C43.6103 156.484 44.4669 155.428 45.18 154.277C46.88 151.608 47.857 148.24 45.52 145.61L47.65 145.26C46.495 144.175 44.673 144.704 43.175 144.382C42.224 144.182 39.488 144.31 38.853 143.772C38.089 143.125 38.579 140.148 38.606 139.272C38.669 137.213 38.841 135.233 39.068 133.186C39.283 131.252 39.24 129.164 39.64 127.264C39.964 125.722 41.001 125.253 42.197 124.344C45.056 122.172 47.385 119.53 46.409 115.787L47.446 115.622C46.328 114.814 44.88 115.108 43.636 114.68C44.778 111.465 47.305 105.812 51.408 105.507C51.549 106.945 51.453 108.654 52.422 109.844C52.9845 110.46 53.7362 110.87 54.5581 111.01C55.3801 111.15 56.2253 111.012 56.96 110.618C58.3853 109.871 59.5285 108.68 60.217 107.225C60.64 106.303 60.564 104.743 61.307 104.012C62.307 103.031 69.172 103.623 68.961 105.278C68.837 106.251 67 107.887 66.487 108.749C65.5162 110.317 64.8268 112.043 64.45 113.849C63.927 116.601 64.23 120.235 67.025 121.683C70.204 123.329 74.079 121.236 76.686 119.428C78.1221 118.428 79.4997 117.346 80.812 116.188C81.5226 115.584 82.1943 114.937 82.823 114.248C83.277 113.734 83.639 112.905 84.197 112.52C85.515 111.61 86.808 113.154 87.923 113.933C89.7128 115.216 91.5745 116.395 93.499 117.465C97.4183 119.726 101.125 122.337 104.575 125.265C108.227 127.999 111.58 131.113 114.575 134.554C112.848 135.616 113.156 135.892 112.388 137.787C111.703 139.026 111.235 140.374 111.005 141.771C110.918 142.997 111.277 144.213 112.015 145.195C112.753 146.178 113.821 146.86 115.023 147.118C116.391 147.399 117.814 147.219 119.069 146.607C120.081 146.16 121.089 145.061 122.147 144.788C124.112 144.281 125.684 147.993 126.786 149.301C131.678 155.109 136.849 160.686 141.455 166.731C141.965 167.401 143.48 168.708 143.604 169.595C143.781 170.868 141.778 172.081 140.948 172.81C140.512 173.193 135.887 177.544 137.44 178.235C137.883 178.435 139.179 175.763 139.502 175.535C140.715 174.68 139.802 176.356 139.725 177.202C139.544 179.302 140.99 180.454 143.025 180.187C145.194 179.902 147.125 178.187 148.467 176.573C150.149 178.521 152.778 181.465 153.267 184.068C153.578 185.731 152.139 189.799 154.825 190.138C155.235 190.189 156.718 189.089 156.995 189.714C157.226 190.236 155.622 191.127 155.395 191.3C154.516 192.019 153.717 192.83 153.012 193.721C152.076 194.769 150.796 195.653 149.742 196.658C148.632 197.716 146.436 200.592 144.971 199.203C144.235 198.503 144.428 197.592 143.249 197.182C142.08 196.958 140.869 197.139 139.817 197.696C138.693 198.161 134.993 199.861 134.583 201.261C134.017 203.191 137.075 200.871 137.618 200.531C136.998 202.105 136.655 204.384 135.076 205.302C133.592 206.014 132.038 206.569 130.438 206.956M109.464 195.051C110.514 191.676 116.707 185.658 120.62 187.541C116.059 188.497 112.439 191.619 109.464 195.051ZM111.78 204.716C110.254 203.865 110.336 201.394 109.803 199.949C109.497 199.119 108.885 198.514 109.065 197.593C109.275 196.514 110.652 195.315 111.384 194.537C113.689 192.088 117.747 188.737 121.457 189.302C126.18 190.017 122.978 196.358 121.37 198.541C119.999 200.403 114.718 206.353 111.78 204.716ZM100.761 200.588C95.6528 200.308 90.5653 199.729 85.525 198.853C83.739 198.52 82.242 198.57 83.264 196.516C83.601 195.838 85.636 191.59 86.096 191.716C86.368 191.788 86.306 194.708 86.386 195.043C86.747 196.543 87.76 197.943 89.467 197.851C92.261 197.696 94.061 194.083 95.532 192.145C96.71 193.729 97.563 195.489 98.748 197.045C99.314 197.79 101.285 199.522 100.761 200.591M70.816 180.541C69.959 182.508 68.236 184.378 67.037 186.159C66.359 184.724 65.883 181.431 67.49 180.37C68.099 179.97 71.358 179.297 70.816 180.54M88.528 186.398C88.764 185.641 89.028 184.89 89.316 184.153C89.816 185.726 90.071 185.773 88.528 186.398ZM92.9 188.008C93.52 189.059 94.553 190.092 94.391 191.408C94.1022 192.455 93.5224 193.399 92.719 194.13C91.651 195.283 89.284 197.495 87.736 195.965C86.443 194.686 86.893 191.17 87.495 189.732C88.354 187.676 91.422 185.501 92.895 188.005M89.862 185.852C90.217 185.71 89.471 183.417 90.162 183.189C90.762 184.567 91.336 184.94 89.862 185.852ZM80.102 154.984C79.872 154.138 79.344 154.173 79.534 153.127C79.7499 152.403 80.1189 151.734 80.616 151.165C81.4583 150.086 82.5061 149.184 83.699 148.512C86.178 147.086 89.582 146.493 91.799 148.727C89.724 149.054 83.364 151.102 83.323 153.94C85.63 153.496 87.445 151.178 89.759 150.448C91.668 149.856 93.7151 149.883 95.608 150.524C100.78 152.257 98.629 156.724 95.708 159.631C93.9708 161.336 91.9002 162.664 89.626 163.531C88.7696 163.917 87.8084 164.005 86.896 163.781C86.702 163.742 86.476 163.381 86.244 163.306C85.667 163.115 85.835 163.762 85.36 163.471C84.7398 162.752 84.2093 161.961 83.78 161.114C83.4303 160.369 83.0262 159.65 82.571 158.964C82.02 158.283 81.751 157.371 81.241 156.755C80.996 156.455 80.325 156.47 80.141 156.181C79.87 155.747 80.215 155.43 80.094 154.981M72.151 188.32C73.327 186.277 75.338 184.544 76.894 182.758C76.994 185.692 74.886 187.702 72.151 188.32ZM73.74 189.264C74.8663 188.866 75.849 188.143 76.5635 187.186C77.2779 186.229 77.692 185.081 77.753 183.888C78.067 180.749 80.038 179.102 81.224 176.282C81.679 175.202 82.209 171.646 83.973 172.664C84.573 173.013 84.937 174.326 85.252 174.919C86.015 176.354 86.882 177.745 87.691 179.154C88.35 180.301 89.337 181.454 89.046 182.836C88.6386 184.087 88.1209 185.299 87.499 186.458C86.371 189.14 84.89 191.61 83.652 194.233C83.152 195.291 82.562 197.796 81.037 197.784C79.83 197.774 79.965 196.454 79.171 196.002C78.171 195.431 77.028 196.518 76.204 196.968C76.6298 196.183 77.2883 195.55 78.089 195.154C78.8896 194.759 79.7931 194.622 80.675 194.761C78.443 192.538 76.934 195.537 75.019 196.205C73.204 196.838 69.984 193.852 68.455 193.005C68.9352 191.906 69.6595 190.93 70.573 190.152C71.527 189.534 72.697 189.629 73.738 189.262M54.015 209.585C54.281 208.305 55.032 207.548 55.508 206.385C56.06 207.794 54.767 208.626 54.015 209.585ZM92.585 217.439C92.455 221.75 92.102 226.049 91.975 230.36C91.917 232.348 91.564 234.245 91.331 236.211C91.131 237.873 91.231 239.505 90.188 240.925C88.539 243.164 85.331 243.807 82.842 244.637C81.014 245.246 79.164 245.798 77.359 246.475C75.734 247.084 74.425 248.006 72.88 248.73C71.498 249.378 70.006 249.761 68.631 250.451C67.208 251.164 66.084 252.034 64.622 252.669C62.9407 253.576 61.351 254.644 59.875 255.857C58.4546 256.684 57.1153 257.643 55.875 258.722C54.775 259.838 53.375 260.322 52.119 261.322C50.7996 262.284 49.404 263.137 47.946 263.872C44.946 265.556 40.907 268.432 37.301 266.796C38.332 265.479 40.443 264.213 40.601 262.396C40.81 260.032 38.752 260.902 37.56 261.657C35.9758 262.793 34.5683 264.157 33.383 265.705C31.777 267.486 29.748 266.288 27.783 265.786C29.127 264.576 30.46 263.356 31.801 262.143C32.933 261.12 34.666 260.014 35.356 258.6C35.511 258.364 35.6156 258.098 35.6633 257.82C35.7109 257.541 35.7006 257.256 35.6329 256.981C35.5652 256.707 35.4417 256.449 35.27 256.225C35.0983 256.001 34.8821 255.814 34.635 255.677C33.304 255.09 31.8 256.328 30.814 257.065C28.362 259.05 26.307 261.481 24.757 264.229C23.843 265.677 23.422 265.566 21.741 265.277C19.96 264.97 18.178 264.643 16.382 264.428C18.9283 261.997 21.2442 259.336 23.3 256.478C23.909 255.552 24.7 253.11 22.848 252.885C22.084 252.792 20.562 254.355 19.972 254.776C17.3064 256.614 15.0121 258.94 13.21 261.63C12.646 262.518 12.469 263.505 11.378 263.578C9.95101 263.678 7.29901 262.312 5.92201 261.892C8.46832 258.507 11.2481 255.305 14.241 252.308C16.9784 249.765 19.9771 247.52 23.187 245.608C26.693 243.355 30.0619 240.896 33.276 238.243C36.387 235.743 39.638 233.386 42.502 230.596C48.2473 224.966 53.2958 218.667 57.539 211.833C58.5368 210.252 59.4449 208.616 60.259 206.933C61.014 205.348 61.359 203.453 62.38 202.011C62.732 201.511 63.228 201.143 63.541 200.623C63.841 200.134 63.741 199.542 64.188 199.109C65.231 198.109 67.131 198.709 68.106 199.409C69.5523 200.652 71.0757 201.803 72.667 202.854C74.4098 203.796 76.2687 204.505 78.196 204.963C82.683 206.054 87.131 206.949 91.701 207.612C91.231 209.356 92.386 209.631 92.769 211.201C93.234 213.101 92.638 215.501 92.58 217.44M49.38 188.353C48.363 186.841 47.455 185.261 46.455 183.74C45.846 182.814 45.091 181.818 45.612 180.686C46.488 178.775 49.581 178.436 51.259 179.268C55.074 181.162 51.53 186.575 49.38 188.353ZM39.28 153.787C38.929 150.833 40.058 148.737 42.731 147.187C44.631 146.087 46.169 147.592 45.909 149.604C45.509 152.67 42.237 156.08 39.737 157.68C39.574 156.38 39.437 155.08 39.28 153.786M38.873 145.334C39.661 144.708 41.773 145.507 42.686 145.561L38.917 148.854C38.835 148.101 38.146 145.912 38.873 145.334ZM43.112 116.806C49.468 115.979 42.151 122.801 40.312 123.87C40.612 122.419 41.348 117.036 43.112 116.806ZM60.033 104.864C59.18 108.364 52.544 112.174 52.475 106.447C52.45 104.313 53.648 104.486 55.398 104.281C56.398 104.165 60.521 102.865 60.033 104.864ZM37.12 110.277C36.375 112.232 35.778 114.238 35.048 116.195C34.7583 116.991 34.3142 117.721 33.741 118.344C33.241 118.918 32.641 119.063 32.656 119.97C33.258 119.806 33.8167 119.512 34.293 119.109C34.169 120.909 33.533 122.844 33.225 124.638C32.8344 126.782 32.5706 128.946 32.435 131.121C32.188 135.863 32.186 140.588 32.29 145.333C32.343 147.751 32.367 150.17 32.498 152.585C32.563 153.785 32.637 154.993 32.785 156.185C32.845 156.667 33.195 157.693 32.979 158.145C32.13 159.918 28.369 155.045 26.736 155.762C26.971 154.412 26.429 154.708 25.524 154.044C25.086 153.722 24.801 153.175 24.343 152.888C24.2056 152.739 24.0527 152.605 23.887 152.488C23.6977 152.231 23.4977 152.258 23.287 152.57C21.447 151.47 20.972 149.126 19.987 147.549C19.479 146.738 18.987 146.612 18.902 145.491C18.827 144.514 18.974 143.519 18.934 142.537C18.9275 141.391 18.7865 140.25 18.514 139.137C18.154 137.893 17.658 137.994 16.693 137.331C16.8342 137.273 16.9605 137.184 17.0625 137.071C17.1645 136.958 17.2395 136.823 17.282 136.676C16.974 136.731 16.037 137.113 15.804 136.839C15.346 136.299 16.426 136.228 16.71 136.012C15.499 135.474 15.759 135.032 16.197 134.047C16.321 133.768 16.439 133.347 16.544 133.116C16.774 132.602 16.906 132.928 16.982 132.29C16.878 131.449 16.6677 130.625 16.356 129.837C16.0451 128.813 15.9851 127.729 16.181 126.677C16.5078 125.803 16.7593 124.902 16.933 123.985C16.943 123.72 16.54 123.632 16.533 123.376C16.525 123.002 16.874 122.838 16.965 122.493C17.0554 121.593 17.2305 120.703 17.488 119.835C17.9403 118.991 18.4713 118.193 19.074 117.449C19.427 116.993 20.294 116.48 20.389 115.879C20.452 115.479 19.831 115.526 19.859 115.226C19.897 114.819 20.237 114.688 20.331 114.386C20.4475 113.556 20.7896 112.774 21.32 112.125C22.159 111.325 22.52 111.66 22.559 110.342C22.576 109.699 22.059 109.599 22.337 108.857C22.487 108.457 22.929 108.216 23.212 107.931C24.0001 107.148 24.6735 106.258 25.212 105.286C25.741 104.362 26.584 103.824 27.125 103.025C27.83 101.984 26.776 101.469 28.207 101.175C28.007 100.529 27.787 100.007 28.323 99.46C28.661 99.115 29.517 99.326 29.816 98.927C30.159 98.469 29.652 97.384 30.168 97.086C30.588 96.845 31.216 97.586 31.876 97.221C32.2125 96.9165 32.4836 96.5467 32.6727 96.1341C32.8618 95.7215 32.965 95.2747 32.976 94.821C34.276 95.552 33.952 95.049 34.576 94.111C34.715 93.901 35.138 93.854 35.258 93.642C35.498 93.218 35.443 92.785 35.789 92.442C36.366 91.868 37.309 92.016 37.943 91.605C38.467 91.266 38.443 90.905 38.858 90.581C39.215 90.308 39.802 90.256 40.15 89.973C40.83 89.419 40.837 88.833 41.689 88.356C42.6813 87.8452 43.6246 87.2444 44.507 86.561C45.107 86.073 45.673 85.207 46.372 84.885C47.2943 84.5993 48.1873 84.2267 49.039 83.772C49.723 83.312 50.37 82.554 51.039 82.167C51.518 81.9625 52.0226 81.8246 52.539 81.757C53.688 81.431 53.968 80.348 54.905 79.908C55.548 79.608 56.485 79.883 57.192 79.724C59.392 79.23 61.563 78.166 63.77 77.576C66.463 76.856 69.176 76.226 71.89 75.59C69.2976 78.9701 66.3134 82.0308 63 84.708C61.942 85.59 56.147 89.608 59.271 91.323C60.525 92.012 63.249 89.788 64.261 89.244C66.307 88.1873 68.4046 87.2338 70.546 86.387C74 84.954 78.495 82.408 82.331 82.612C79.996 85.478 77.08 87.778 74.409 90.312C71.954 92.638 68.256 94.82 69.409 98.628C65.961 97.75 62.864 96.714 59.279 96.944C57.673 97.044 56.066 96.853 54.468 97.079C52.7539 97.3921 51.067 97.8395 49.423 98.417C48.101 98.817 46.641 98.852 45.423 99.524C44.783 99.8792 44.1676 100.277 43.581 100.715C43.0269 101.17 42.5486 101.71 42.164 102.315C40.193 104.839 38.285 107.206 37.113 110.282M26.335 158.059C26.227 157.622 26.129 157.223 26.006 156.724C27.106 157.4 27.106 157.4 26.335 158.059ZM18.041 144.142C17.9205 144.24 17.7738 144.3 17.6193 144.315C17.4648 144.33 17.3092 144.3 17.172 144.227C16.966 144.027 17.507 143.245 17.593 143.079C17.807 143.244 18.301 143.779 18.041 144.142ZM15.69 139.077L16.126 137.477C16.304 137.971 17.109 138.518 17.126 138.99C17.137 139.302 15.848 139.147 15.689 139.078M16.155 139.81C17.414 140.639 17.546 141.617 17.583 143.048C16.076 142.548 16.292 141.09 16.155 139.81ZM38.055 83.347C37.928 83.691 37.388 84.763 36.993 84.013C36.867 83.773 37.793 83.446 38.055 83.347ZM37.7 82.178C38.011 81.898 38.639 82.247 38.991 82.02C39.238 81.861 39.156 81.7 39.272 81.606C39.295 81.587 39.631 80.906 39.772 80.754C40.015 80.483 40.544 80.314 40.839 80.07C41.5921 79.3563 42.2056 78.5085 42.648 77.57C42.8167 77.1746 43.0648 76.818 43.377 76.5225C43.6893 76.2269 44.0589 75.9987 44.463 75.852C45.1336 75.5124 45.7373 75.0544 46.245 74.5C46.89 73.826 46.845 73.343 47.373 72.605C47.635 72.241 48.012 72.196 48.317 71.905C48.683 71.554 48.868 71.063 49.207 70.705C49.353 70.552 49.822 70.552 49.907 70.421C50.02 70.255 50.107 69.591 50.213 69.469L50.818 70.287C51.4269 68.924 52.3555 67.7278 53.525 66.8C54.925 65.822 56.125 64.391 57.573 63.515C57.898 63.315 58.559 63.235 58.807 62.945C59.226 62.454 58.863 62.018 59.169 61.601C59.516 61.128 60.188 61.511 60.63 61.307C61.188 61.049 61.348 60.296 62.067 60.379C59.703 63.179 59.733 67.527 59.608 71.02C59.554 72.525 60.501 73.284 59.102 74.388C57.912 75.328 56.233 75.049 54.826 75.667C53.058 76.443 51.168 76.857 49.365 77.533C47.5 78.233 46 79.458 44.205 80.269C42.7783 81.0486 41.4047 81.9215 40.093 82.882C39.555 83.21 38.721 83.682 38.079 83.294C37.679 83.048 37.179 82.645 37.701 82.171M64.401 58.721C64.501 58.321 66.521 57.279 67.018 56.939C67.763 56.427 68.866 55.176 69.697 55.673C69.863 55.0715 70.1665 54.5168 70.5835 54.0526C71.0005 53.5883 71.5197 53.2273 72.1 52.998C73.5624 52.5469 74.94 51.8569 76.177 50.956C76.494 50.715 76.598 50.363 76.971 50.137C77.62 49.744 78.264 49.958 78.889 49.422C78.989 49.34 79.849 47.912 79.883 47.922C79.927 48.075 79.968 48.23 80.003 48.386C80.6116 48.1081 81.1693 47.7302 81.653 47.268C81.746 47.163 81.144 46.889 81.334 46.68C81.567 46.425 82.085 46.71 82.32 46.468C81.589 50.094 82.133 54.763 85.812 56.601C81.437 57.074 77.163 55.758 72.734 56.566C70.583 56.9354 68.4954 57.6088 66.534 58.566C65.352 59.166 63.841 61.304 62.665 60.266C63.1994 59.7054 63.7805 59.1912 64.402 58.729M85.624 48.298C86.3908 47.3273 87.4321 46.6101 88.6124 46.2398C89.7927 45.8695 91.0572 45.8633 92.241 46.222C95.167 47.061 93.933 49.106 93.491 51.376C93.0009 50.6855 92.3708 50.106 91.6418 49.6753C90.9128 49.2445 90.1013 48.9722 89.26 48.876C87.052 48.824 87.886 50.663 89.212 51.322C90.417 51.922 92.485 52.088 93.348 53.177C94.188 54.237 93.866 55.97 94.001 57.22L92.042 56.929C92.59 54.012 90.178 53.871 87.929 53.049C85.656 52.218 83.761 50.58 85.623 48.302M92.952 41.119V43.826L90.222 42.27L92.952 41.119ZM100.266 62.75C103.306 63.5336 106.302 64.4783 109.241 65.58C110.301 65.993 111.463 66.138 112.503 66.604C113.493 67.047 113.641 67.004 113.289 67.868C112.303 70.298 109.967 69.878 107.921 69.507C104.721 68.925 101.58 68.118 98.421 67.359C95.329 66.617 92.171 66.131 89.126 65.202C86.0428 64.2115 82.9103 63.3817 79.741 62.716C78.803 62.532 71.382 61.852 71.441 61.076C76.115 60.469 80.927 61.067 85.622 61.13C90.5543 61.0584 95.4763 61.6023 100.274 62.749M96.15 53.349C96.208 51.678 96.231 50.002 96.439 48.341C97.829 50.057 99.084 50.571 100.839 48.962C102.517 47.422 102.891 46.619 105.019 48.062C105.82 48.651 106.783 48.977 107.777 48.9949C108.771 49.0128 109.746 48.7218 110.567 48.162C111.762 47.491 113.682 44.752 114.938 45.316C115.538 45.585 115.975 46.669 116.579 47.067C117.451 47.5658 118.4 47.9169 119.387 48.106C121.474 48.563 122.718 47.221 124.028 45.785C125.928 43.703 125.872 44.912 127.634 46.356C129.598 47.967 131.241 47.18 133.02 45.806C134.008 49.0479 134.612 52.3944 134.82 55.777C134.92 56.901 135.309 58.497 134.299 59.291C133.588 59.851 132.078 59.874 131.22 60.183C128.135 61.2829 125.243 62.8656 122.654 64.872C121.654 65.656 120.786 66.615 119.422 66.437C118.122 66.267 116.86 65.179 115.814 64.46C114.717 63.593 113.502 62.886 112.206 62.36C111.43 62.106 110.186 62.197 109.506 61.731C108.243 60.864 109.729 58.59 109.415 57.063C109.177 55.904 108.51 53.487 106.915 54.163C104.539 55.174 105.922 59.12 107.228 60.351C104.439 59.8747 101.689 59.1925 99 58.31C97.009 57.63 96.066 55.382 96.137 53.344M140.957 61.482C146.271 59.9021 151.75 58.9427 157.285 58.623C159.812 58.499 162.259 58.577 164.758 58.6C166.196 58.613 167.293 57.453 166.144 56.118C164.553 54.27 159.701 54.973 157.551 54.89C151.952 54.599 146.35 55.3908 141.051 57.222C141.628 56.159 143.014 56.022 143.965 55.471C145.098 54.7671 145.963 53.7038 146.421 52.451C147.721 49.242 146.413 46.219 145.057 43.288C147.719 44.004 150.473 45.573 153.15 45.971C153.631 45.9842 154.108 46.0629 154.568 46.205C154.868 46.33 154.968 46.763 155.347 46.858C155.529 46.904 155.967 46.492 156.174 46.55C156.989 46.78 156.345 46.841 156.86 47.175C157.269 47.44 157.236 47.78 157.986 47.656C158.319 47.601 158.68 47.086 158.855 47.072C159.078 47.054 159.027 46.782 159.369 46.861C159.991 47.006 159.936 47.807 160.143 48.2C160.364 48.62 160.05 49.178 160.721 49.407C161.221 49.579 161.348 49.049 161.775 49.087C162.161 49.2102 162.513 49.4238 162.8 49.71C163.601 50.5213 164.524 51.2017 165.536 51.726C165.436 51.626 166.003 51.393 165.868 51.337C166.034 51.3619 166.198 51.3953 166.361 51.437C166.933 51.567 167.235 52.445 167.524 52.765C168.103 53.407 168.821 53.9082 169.624 54.23C170.912 54.678 170.873 54.143 171.343 55.673C172.259 54.233 172.61 56.645 173.743 56.91C174.331 57.048 174.263 56.796 174.797 57.103C175.164 57.314 175.409 57.961 175.685 58.272C175.804 57.8227 175.922 57.373 176.041 56.923C176.859 58.473 178.625 60.931 180.561 60.486C180.561 60.909 180.387 61.415 180.714 61.776C180.943 62.028 181.314 61.742 181.492 61.888C181.648 62.016 182.022 62.526 182.141 62.61C182.377 62.775 182.804 62.896 183.009 63.061C183.189 63.206 183.279 63.898 183.479 64.149C183.855 64.62 184.505 64.713 184.812 65.277C184.883 64.7203 184.953 64.164 185.022 63.608C185.26 63.7881 185.456 64.0181 185.597 64.2818C185.737 64.5456 185.818 64.8367 185.834 65.135C186.047 66.117 185.764 65.887 186.442 66.301C187.12 66.715 187.454 66.663 188.064 67.37C188.674 68.077 188.664 68.49 189.53 67.77C189.603 68.3599 189.824 68.9218 190.171 69.404C190.495 69.713 191.835 69.726 191.962 70.457C189.444 68.333 191.101 71.557 191.962 70.462C192.144 71.636 193.003 72.015 193.984 72.851C194.899 73.63 195.049 73.574 195.361 74.882C195.539 74.966 195.705 75.0729 195.855 75.2C194.964 75.327 196.345 76.324 196.579 76.506C196.749 76.639 196.972 76.322 197.255 76.537C197.579 76.8864 197.865 77.27 198.106 77.681C198.719 78.5385 199.387 79.3553 200.106 80.126C200.917 80.926 201.312 81.944 202.091 82.882C202.847 83.9613 203.533 85.0876 204.146 86.254C204.89 87.2733 205.692 88.2499 206.546 89.179C207.814 90.747 208.246 94.2 210.61 94.291C210.472 94.434 210.664 95.504 210.687 95.702C210.658 96.6674 210.868 97.6251 211.3 98.489C211.432 97.489 211.957 97.872 212.413 98.4C213.172 99.278 212.506 99.057 212.546 99.946C212.594 101.024 212.717 100.19 213.128 101.132C213.43 101.782 213.655 102.464 213.798 103.166C212.463 103.272 211.851 102.18 211.357 101.123C211.151 100.681 211.079 99.954 210.714 99.608C210.325 99.24 209.791 99.208 209.392 98.801C208.625 98.012 208.292 96.782 207.392 96.014C206.606 95.327 205.904 94.5496 205.3 93.698C204.366 92.551 203.077 91.746 202.1 90.636C201.123 89.526 201.2 90.136 199.966 89.729C198.656 89.301 196.537 85.181 194.886 86.768C194.951 85.73 193.397 84.754 192.611 84.377C192.271 84.215 191.876 84.362 191.536 84.118C191.167 83.854 191.136 83.344 190.769 83.027C190.546 83.0896 190.314 83.1166 190.083 83.107C189.848 82.987 189.846 82.565 189.638 82.427C189.062 82.043 188.377 81.639 187.766 81.312C186.282 80.512 184.966 79.536 183.538 78.578C182.311 77.757 180.826 76.278 179.408 75.841C178.17 75.463 177.391 75.655 176.377 74.898C175.825 74.486 175.987 74.348 175.1 74.091C174.255 73.847 173.78 73.972 173.332 73.076C172.549 71.508 173.043 68.447 172.892 66.688C172.776 64.8025 172.495 62.9307 172.053 61.094C171.477 58.949 170.717 57.828 168.416 58.333C163.857 59.333 159.354 60.288 154.774 61.168C145.648 62.921 136.679 65.782 127.754 68.321C127.074 68.515 123.282 69.383 124.054 67.421C124.411 66.521 126.812 66.179 127.615 65.895C132.026 64.333 136.458 62.743 140.966 61.477M139.433 57.485L137.433 58.248V56.398L139.433 57.489M136.663 47.689C137.242 48.162 138.42 47.023 138.912 46.789C139.794 46.3388 140.774 46.1151 141.764 46.138C142.181 46.1842 142.585 46.3156 142.949 46.5239C143.314 46.7323 143.631 47.0133 143.883 47.3494C144.134 47.6856 144.314 48.0697 144.411 48.4782C144.508 48.8866 144.52 49.3107 144.447 49.724C143.91 52.651 139.739 54.035 137.44 55.179C137.366 54.142 137.031 52.895 137.758 51.998C138.39 51.219 139.614 51.276 140.197 50.447C141.663 48.364 137.689 48.176 136.797 49.832L135.746 46.657C136.592 46.517 136.22 47.328 136.659 47.686M140.759 41.957L138.277 43.557C137.867 41.705 139.265 41.457 140.759 41.957ZM216.152 106.406C215.069 106.923 214.797 105.688 214.018 105.635C214.939 105.069 214.939 105.069 216.152 106.406ZM220.559 133.371C220.694 135.146 220.588 136.941 220.825 138.709C221.005 140.054 221.55 141.309 221.608 142.665C221.761 145.676 220.715 148.624 218.698 150.865C216.683 152.988 214.193 154.603 211.433 155.577C210.264 155.968 209.044 156.835 207.909 157.155C206.653 157.51 205.46 156.738 204.424 158.122C203.733 152.183 204.238 145.978 204.184 140.001C204.13 134.024 204.194 128.021 203.184 122.096C202.284 116.819 200.503 110.884 197.224 106.568C195.862 104.858 194.282 103.334 192.524 102.035C191.646 101.299 190.712 100.632 189.73 100.041C188.192 99.194 186.882 99.311 185.209 99.069C182.893 98.5713 180.497 98.584 178.187 99.106C175.872 99.673 173.626 100.489 171.487 101.539C169.487 102.626 167.173 103.073 165.101 104.047C163.692 104.709 160.764 106.921 159.201 106.523C157.687 106.137 155.447 103.568 154.48 102.417C153.245 100.946 152.223 99.241 151.127 97.659C150.568 97.04 150.137 96.3168 149.858 95.531C149.684 94.293 150.18 94.698 151.363 94.831C154.358 95.1556 157.313 95.7852 160.18 96.71C161.631 97.186 164.467 99.11 165.918 97.958C168.133 96.195 164.767 93.164 163.535 92.146C161.435 90.411 158.992 89.123 156.754 87.582C154.375 85.944 151.23 84.2 149.699 81.682C154.169 83.002 158.635 84.513 162.975 86.215C164.969 86.9634 166.911 87.844 168.788 88.851C169.836 89.432 171.952 91.004 173.213 90.251C175.955 88.614 169.657 83.86 168.749 82.889C167.337 81.379 165.949 79.889 164.402 78.514C163.355 77.59 161.71 76.94 161.224 75.578C162.962 76.207 164.367 77.439 165.994 78.278C166.796 78.7018 167.666 78.9811 168.564 79.103C169.247 79.1863 169.902 79.4258 170.477 79.803C171.095 80.1703 171.744 80.4841 172.416 80.741C173.026 80.8248 173.624 80.9778 174.199 81.197C174.419 81.511 174.646 81.8197 174.881 82.123C175.143 82.2003 175.401 82.2893 175.656 82.39C176.038 82.731 176.264 83.2 176.635 83.551C179.335 86.1 182.935 87.923 185.956 90.059C188.815 92.078 191.848 93.906 194.594 96.11C197.863 98.6184 200.916 101.397 203.72 104.417C205.189 106.183 206.54 108.043 207.763 109.987C208.687 111.363 210.03 112.506 210.828 113.925C212.569 117.02 214.014 120.365 215.888 123.41C217.797 126.51 220.288 129.596 220.572 133.373M194.89 151.331C195.411 149.183 198.348 146.675 200.225 145.731C199.279 148.071 196.758 149.667 194.89 151.331ZM199.733 158.824C198.133 162.146 191.092 162.524 192.047 157.61C192.515 155.201 194.501 153.724 196.206 152.147C196.994 151.419 198.925 148.814 200.145 149.233C200.088 151.106 199.978 152.987 199.982 154.861C199.982 156.112 200.3 157.649 199.733 158.824ZM197.698 120.538C198.347 121.997 198.998 123.212 197.789 124.517C197.245 125.106 195.473 126.395 194.672 126.108C192.099 125.19 197.005 121.194 197.698 120.538ZM182.134 107.558C182.754 107.524 183.355 107.616 183.968 107.579C184.376 107.5 184.793 107.477 185.208 107.51L185.387 107.77C185.464 108.352 185.77 108.415 186.304 107.96C186.983 108.074 187.637 108.302 188.239 108.636C186.323 110.018 183.991 111.624 181.639 112.088C177.926 112.821 178.952 107.733 182.131 107.558M125.2 138.63C124.815 139.404 123.708 137.469 123.434 137.109C123.945 137.109 125.59 137.849 125.2 138.63ZM155.033 118.242C158.064 116.555 161.207 115.08 164.442 113.827C164.987 116.452 162.33 119.841 160.693 121.637C159.38 123.192 157.78 124.481 155.98 125.432C154.04 126.332 151.92 125.939 152.014 123.403C152.048 122.289 152.258 121.187 152.637 120.138C153.124 119.046 154.043 118.819 155.037 118.238M116.037 70.492C116.466 70.467 121.13 69.864 121.106 70.444C121.032 72.188 116.506 70.818 116.037 70.492ZM83.055 104.172C85.518 101.132 89.495 97.852 89.555 93.603C89.641 87.352 82.704 90.471 79.216 90.731C81.06 88.919 90.328 81.317 84.846 78.616C83.27 77.84 81.031 78.599 79.446 79.005C76.641 79.727 74.033 80.976 71.277 81.846C73.246 79.746 76.649 77.367 76.537 74.193C76.401 70.329 73.229 71.263 70.486 71.83C69.432 72.048 64.723 73.921 63.838 72.65C63.514 72.184 64.038 71.592 64.149 71.177C64.2909 70.6086 64.3388 70.0209 64.291 69.437C64.305 67.924 65.309 65.982 64.491 64.575C64.304 64.8949 64.1432 65.2293 64.01 65.575C63.74 64.756 63.921 63.888 63.651 63.069C70.499 64.82 77.465 65.779 84.351 67.269C87.84 68.026 91.123 69.329 94.659 69.916C98.225 70.507 101.73 71.416 105.303 71.976C108.563 72.49 111.686 73.346 114.914 74.003C118.061 74.643 121.288 73.24 124.36 72.53C131.24 70.939 138.117 69.309 145.006 67.765C152.955 65.983 161.224 64.459 168.833 61.487C168.98 65.4483 169.296 69.3983 169.781 73.337C166.421 71.749 161.434 69.677 158.037 72.52C157.386 73.1068 156.922 73.8715 156.701 74.7195C156.481 75.5675 156.514 76.4615 156.796 77.291C157.381 79.109 159.172 79.953 160.354 81.321C156.754 80.399 147.476 73.896 145.824 80.469C144.657 85.111 150.349 88.11 153.131 90.723C150.367 90.182 146.667 87.973 145.044 91.523C143.644 94.593 145.331 97.933 147.061 100.465C147.999 101.837 149.053 103.128 150.05 104.457C150.577 105.157 151.092 105.873 151.65 106.557C152.371 107.215 153.037 107.93 153.643 108.695C154.427 110.18 152.843 110.271 151.615 110.808C150.127 111.593 148.703 112.493 147.356 113.5C144.14 115.553 141.329 117.46 137.529 118.117C133.616 118.792 129.849 119.498 125.988 120.44C122.127 121.382 118.997 122.282 115.063 121.068C113.419 120.429 111.669 120.109 109.906 120.126C109.063 120.266 108.199 120.228 107.371 120.016C106.543 119.804 105.768 119.422 105.096 118.894C98.026 113.569 90.352 109.2 83.055 104.172ZM70.313 98.829C73.046 97.458 75.796 96.08 78.619 94.902C80.955 93.927 84.503 92.79 87.061 93.218C86.267 95.027 85.0907 96.6427 83.613 97.954C82.365 99.16 80.806 100.98 79.296 101.822C77.924 102.586 76.329 101.376 74.976 100.869C73.49 100.312 71.445 100.051 70.313 98.829ZM71 105.746C72.362 105.18 75.288 107.079 76.527 107.572C79.0016 108.458 81.3606 109.638 83.553 111.088C80.9969 114.185 77.9127 116.805 74.443 118.827C72.124 120.106 68.216 121.573 66.028 119.251C63.28 116.332 66.584 110.385 68.528 107.884C68.5947 108.311 68.6593 108.739 68.722 109.167C69.343 108.173 69.818 106.238 71 105.746ZM120.99 131.652C119.29 132.01 118.714 131.687 117.59 130.384C116.853 129.478 116.066 128.614 115.232 127.797C114.36 126.989 112.205 125.041 114.95 126.163C117.256 127.247 119.826 127.64 122.35 127.296C125.497 126.838 128.432 125.507 131.535 124.834C129.835 126.322 128.145 127.826 126.44 129.311C124.64 130.879 123.277 131.171 120.989 131.653M121.377 143.626C117.654 146.426 110.159 146.126 112.677 139.96C113.07 139.023 113.588 138.143 114.217 137.345C114.459 136.973 114.752 136.636 115.087 136.345C115.911 135.845 115.682 135.785 116.474 136.618C117.157 137.336 122.495 143.206 121.374 143.618M120.274 132.907C120.615 132.796 122.052 131.963 122.379 132.424C122.706 132.885 119.893 134.506 120.274 132.907ZM147.374 175.636C146.537 177.636 139.838 180.536 141.086 176.501C141.639 174.712 142.16 173.359 144.245 173.223C145.445 173.145 148.111 173.873 147.374 175.636ZM159.395 148.498C160.495 146.892 164.14 144.721 165.695 147.116C166.444 148.269 164.626 148.86 163.527 148.564C162.979 148.317 162.403 148.136 161.812 148.025C160.987 147.991 160.18 148.638 159.395 148.498ZM162.319 150.092C161.569 150.851 157.046 154.657 156.314 154.07C157.791 151.959 159.487 149.601 162.319 150.092ZM154.932 188.605C153.362 188.694 154.146 186.327 154.298 185.381C154.632 186.428 154.845 187.51 154.932 188.605ZM158.922 184.363C158.414 183.463 157.045 182.113 157.354 180.95C157.591 180.061 159.728 178.865 160.622 179.375C161.81 180.053 160.088 184.513 158.922 184.363ZM196.189 174.883C195.517 177.198 194.821 176.6 192.714 177.049C190.607 177.498 189.139 179.293 187.279 180.256C187.925 178.89 188.326 177.225 189.408 176.116C189.658 175.86 191.192 175.354 190.318 174.761C189.554 174.243 188.456 175.925 188.128 176.383C186.568 178.742 185.334 181.302 184.459 183.992C183.992 185.261 183.644 186.571 183.418 187.905C183.225 189.099 183.433 190.347 183.236 191.505C182.919 193.377 180.377 193.386 178.848 193.869C177.477 194.351 176.074 194.734 174.648 195.015C173.402 195.215 172.11 194.847 170.903 195.093C169.596 195.359 169.009 196.134 167.523 195.959C166.312 195.817 165.178 195.259 163.951 195.204C162.802 195.152 161.656 195.549 160.514 195.226C159.372 194.903 159.414 194.773 159.679 193.64L160.171 194.557C160.63 194.197 160.948 193.099 161.23 192.583C161.667 191.783 162.023 191.508 161.861 190.513C161.622 189.044 160.297 187.998 159.997 186.6C159.683 185.141 160.762 183.949 161.397 182.731C161.811 182.035 162.04 181.244 162.063 180.435C162.085 179.625 161.901 178.823 161.527 178.105L163.179 178.542C162.424 176.903 159.865 177.567 158.579 178.053C157.934 178.297 156.911 179.253 156.217 179.231C155.263 179.198 154.766 177.944 154.356 177.253C153.15 175.24 151.833 173.295 150.412 171.427C150.026 170.917 149.521 170.589 149.654 170.007C149.768 169.514 150.874 168.814 151.233 168.507C152.579 167.369 154.292 166.738 155.556 165.541C157.467 163.731 159.67 162.434 161.623 160.659C163.658 158.811 165.755 157.113 167.875 155.366C170.023 153.597 171.883 151.512 174.016 149.725C174.568 150.725 175.639 154.311 176.863 154.589C178.29 154.912 178.248 153.223 178.177 152.207C178.077 150.759 177.272 149.352 177.182 147.97C177.082 146.492 178.508 145.831 179.582 144.976C181.24 143.655 184.91 140.646 182.937 138.17C181.237 136.037 175.712 140.127 174.19 141.356C173.024 142.402 171.768 143.343 170.438 144.17C169.413 144.749 167.694 146.977 166.479 146.77C165.034 146.526 164.47 144.948 162.702 145C160.975 145.05 159.508 146.295 158.436 147.543C156.015 150.366 155.183 154.143 152.976 157.087C151.888 158.538 150.476 159.736 149.297 161.109C147.997 162.616 147.726 164.352 146.448 165.826C142.791 160.954 138.807 156.342 134.948 151.626C133.022 149.273 131.136 146.893 129.248 144.507C128.542 143.613 127.748 142.774 127.099 141.835C126.213 140.548 126.372 139.515 126.025 138.081C125.871 137.445 125.149 136.681 125.342 136.081C125.602 135.264 127.427 134.623 128.086 134.29C130.721 132.862 133.27 131.28 135.719 129.553C140.361 126.466 145.056 123.572 149.993 120.935C149.908 122.071 149.169 123.248 149.665 124.388C149.896 123.732 150.265 120.812 151.138 120.688C151.027 122.114 151.062 123.547 151.244 124.965C151.387 125.72 151.791 126.401 152.386 126.888C152.982 127.374 153.729 127.635 154.498 127.624C157.692 127.603 160.555 124.124 162.328 121.824C163.628 120.273 164.576 118.457 165.104 116.503C165.484 114.752 165.066 113.534 166.887 112.644C170.553 110.803 174.409 109.368 178.387 108.365C178.208 110.087 177.709 112.206 179.274 113.445C181.001 114.812 183.261 113.594 184.887 112.689C186.498 111.789 188.982 109.333 190.874 110.048C192.735 110.748 194.03 113.085 195.074 114.635C195.992 116.001 196.991 116.986 195.928 118.508C194.834 120.18 193.857 121.925 193.006 123.733C192.639 124.445 192.289 124.91 192.549 125.64C192.914 126.302 193.35 126.922 193.849 127.489C195.506 128.779 197.749 126.326 198.928 125.389C199.345 129.4 199.439 133.389 199.607 137.416C199.731 140.363 200.871 143.263 198.453 145.416C196.031 147.437 194.024 149.909 192.544 152.695C191.757 154.253 191.051 155.851 190.2 157.376C189.631 158.395 188.432 159.89 189.166 161.089C189.941 160.354 190.171 159.236 190.817 158.407C191.204 160.128 191.593 162.036 193.417 162.765C195.511 163.604 197.592 162.153 199.446 161.344C198.676 165.921 197.589 170.439 196.192 174.866M194.052 180.153C192.615 183.224 191.317 186.927 188.664 189.188C188.081 189.688 185.606 191.623 184.664 191.298C183.864 191.022 184.304 189.406 184.444 188.714C184.672 187.135 185.212 185.617 186.033 184.249C186.853 182.881 187.938 181.69 189.224 180.746C190.42 179.637 191.866 178.833 193.439 178.403C195.076 178.156 194.604 178.973 194.052 180.153ZM234.584 253.053C230.859 247.987 225.593 244.053 220.617 240.244C218.363 238.52 215.879 237.227 213.602 235.503C211.073 233.501 208.371 231.727 205.529 230.203C200.062 227.417 194.097 225.475 188.937 222.181C186.421 220.574 183.668 219.022 181.302 217.218C180.284 216.37 179.316 215.464 178.402 214.505C177.53 213.662 175.656 212.437 175.309 211.205C176.761 210.967 177.586 209.558 178.883 209.415C179.31 209.367 181.983 210.075 181.619 208.777C182.262 208.797 182.904 208.712 183.519 208.526C183.856 208.438 184.255 208.576 184.595 208.455C185.116 208.271 185.47 207.74 185.995 207.536C186.369 207.392 187.758 207.553 187.968 207.373C188.543 206.882 187.932 206.925 187.589 206.312C188.706 206.283 189.473 206.848 190.589 206.248C190.93 206.065 191.219 205.648 191.549 205.426C192.135 205.038 192.349 205.639 192.749 204.835C193.125 205.944 193.114 205.635 194.02 205.311C194.843 204.969 195.713 204.753 196.6 204.67C199.054 204.476 201.517 204.77 203.959 204.599C204.8 204.459 205.653 204.409 206.504 204.449C207.285 204.549 207.05 205.096 207.704 204.363C207.855 204.193 207.367 203.727 207.604 203.482C207.704 203.374 208.044 203.45 208.171 203.395C209.313 202.895 209.318 203.595 209.521 204.5C210.203 204.39 210.859 204.155 211.456 203.808C211.162 203.546 210.67 203.256 210.956 202.777C211.922 203.143 212.556 202.977 212.07 204.035C213.042 204.356 213.223 203.935 214.096 203.846C214.612 203.792 215.333 204.112 215.763 203.7C216.233 203.25 215.492 202.761 216.354 202.374C216.528 202.461 216.667 202.604 216.748 202.781C217.215 202.922 217.131 203.105 216.497 203.331C218.197 204.21 217.797 203.231 218.507 202.187C218.672 201.948 219.407 201.203 219.744 201.563C220.253 202.108 219.213 202.282 219.436 202.824C219.822 203.764 221.17 202.559 221.584 202.083C221.897 201.723 222.025 201.034 222.362 200.765C222.831 200.392 223.505 200.965 224.092 200.865C226.773 200.395 229.304 196.791 227.285 194.378C226.742 193.729 226.285 193.859 225.636 193.449C225.057 192.961 224.548 192.395 224.125 191.767C222.968 190.461 221.512 189.453 219.882 188.829C216.024 187.384 212.049 186.273 208.001 185.508C206.133 185.02 204.223 184.713 202.296 184.591C201.182 184.591 199.503 185.459 198.462 185.045C196.437 184.238 199.41 180.107 199.901 178.772C201.344 174.805 202.429 170.717 203.143 166.556C203.192 165.675 203.317 164.799 203.519 163.94C203.852 163.058 203.919 163.182 204.636 163.111C205.924 162.981 207.336 163.656 208.673 163.423C210.215 163.321 211.749 163.121 213.266 162.823C213.954 162.681 214.579 162.323 215.049 161.8C215.192 161.618 215.033 161.459 215.123 161.331C215.151 161.291 215.664 160.738 215.681 160.706C215.676 160.42 215.701 160.135 215.756 159.854C216.276 160.286 216.02 161.191 216.896 161.212C217.052 160.247 217.054 160.052 217.687 159.512C217.639 159.554 218.164 159.112 218.097 159.155C218.128 158.984 218.193 158.821 218.286 158.674C218.579 158.532 218.899 158.454 219.224 158.446C219.909 157.746 219.624 157.367 219.624 156.419L221.282 157.28C221.416 154.472 223.125 152.934 224.262 150.658C224.817 149.774 225.189 148.788 225.355 147.758C225.305 147.118 225.363 146.473 225.527 145.852C225.78 145.275 226.347 144.964 226.584 144.335C227.05 143.098 226.702 141.519 226.728 140.235C226.764 138.454 226.941 136.678 227 134.897C227.066 131.367 226.811 127.838 226.24 124.354C225.99 122.701 225.571 121.098 225.24 119.462C224.97 118.118 224.323 116.862 224.092 115.607C224.087 115.086 224.054 114.565 223.992 114.047C223.785 113.291 223.44 112.547 223.184 111.807C222.584 110.074 221.992 108.344 221.318 106.638C220.012 103.332 218.482 100.125 217.03 96.882C215.785 93.7057 214.327 90.6173 212.665 87.638C210.882 84.77 208.965 81.951 206.998 79.205C204.951 76.346 202.364 73.89 200.379 71.005C196.652 65.588 191.454 61.124 186.016 57.438C174.794 49.831 162.666 42.238 149.21 39.628C147.184 39.2188 145.127 38.9793 143.061 38.912C141.778 38.88 139.654 39.5 138.439 39.066C137.079 38.58 137.203 37.052 136.863 35.854C136.366 34.4297 135.484 33.1706 134.316 32.216C133.235 30.9575 131.981 29.8585 130.592 28.952C129.043 28.2373 127.385 27.79 125.687 27.629C124.211 27.415 122.006 27.615 120.658 26.972C119.43 26.386 120.036 25.772 121.186 26.278C121.217 25.8302 121.384 25.4023 121.663 25.051C121.826 24.851 122.597 24.578 122.616 24.394C122.638 24.179 121.991 23.566 121.899 23.288C121.73 22.6274 121.783 21.9297 122.049 21.302C123.208 22.333 123.549 22.789 124.839 21.802C125.226 21.4405 125.685 21.1649 126.186 20.993C126.358 20.936 126.743 21.112 126.893 21.013C127.465 20.636 126.939 20.725 127.211 20.28C127.143 20.392 127.623 19.209 127.6 19.456C127.658 18.826 127.845 19.019 127.464 18.245C126.718 16.73 124.82 16.668 125.788 14.939C126.168 14.259 126.503 14.326 126.611 13.339C126.636 12.7798 126.63 12.2197 126.595 11.661C126.595 10.561 126.795 9.785 125.764 9.224C124.77 8.684 123.854 9.276 123.45 7.937C123.027 6.531 123.45 4.728 121.93 3.766C120.817 3.066 119.21 3.666 117.98 3.32C116.75 2.974 115.6 1.728 114.353 2.698C113.464 3.386 112.993 5.078 111.318 4.163C110.562 3.75 110.146 2.363 109.669 1.588C108.91 0.348005 108.3 -0.101995 107.133 1.107C106.413 1.851 104.894 3.662 104.801 4.691C104.701 5.828 105.691 6.303 104.446 6.975C103.201 7.647 102.513 7.153 101.507 8.512C100.501 9.871 101.282 10.604 100.127 11.893C98.683 13.504 97.914 14.2 97.935 16.371C97.949 17.86 96.635 19.146 97.401 20.559C98.261 22.142 100.771 22.801 102.293 23.445C101.785 24.384 101.088 24.986 101.681 25.952C102.218 26.827 103.737 27.009 104.681 26.852C105.314 26.745 105.337 26.841 105.835 26.396C106.162 26.104 105.714 25.741 106.386 25.579C107.101 25.406 108.245 26.809 108.709 27.16C107.67 28.508 104.818 28.76 103.309 29.443C102.39 29.86 101.544 30.476 100.609 30.849C99.76 31.187 98.726 31.108 97.956 31.631C96.626 32.531 96.072 34.771 95.256 36.086C94.9075 36.763 94.3981 37.344 93.7724 37.778C93.1468 38.212 92.4242 38.4857 91.668 38.575C89.591 38.7836 87.5547 39.2887 85.621 40.075C83.105 41.25 80.621 42.49 78.155 43.756C74.2338 45.7356 70.4316 47.9427 66.768 50.366C62.897 52.951 59.131 55.649 55.396 58.35C51.8159 61.135 48.4695 64.2079 45.39 67.538C42.796 70.149 40.519 72.968 37.935 75.579C34.884 78.661 32.64 82.552 29.811 85.822C28.2172 87.5085 26.8705 89.4125 25.811 91.477C25.024 93.185 23.655 94.861 22.742 96.654C21.574 98.945 20.47 101.2 19.159 103.416C18.621 104.325 17.982 105.105 17.414 105.973C16.8548 107.044 16.5535 108.231 16.534 109.439L15.922 108.501C15.552 109.31 15.104 110.101 14.783 110.933C14.583 111.461 14.61 112.212 14.405 112.674C14.147 113.254 13.833 113.174 13.511 113.66C13.167 114.177 13.057 114.871 12.694 115.426C11.128 117.826 10.525 120.862 9.72001 123.595C8.64001 127.263 8.81101 131.478 8.86901 135.259C8.89319 139.254 9.18753 143.243 9.75001 147.199C10.2776 150.774 11.4745 154.217 13.278 157.349C14.8249 159.893 17.1228 161.895 19.855 163.078C21.142 163.721 22.336 163.522 23.687 163.625C25.167 163.737 26.176 164.139 27.741 163.786C28.492 163.616 28.847 163.069 29.441 162.886C29.81 162.773 30.009 162.958 30.364 162.915C31.0592 162.769 31.766 162.686 32.476 162.665C34.188 162.852 33.9 165.439 34.069 166.765C34.328 168.8 34.518 170.857 34.869 172.88C35.604 177.134 37.191 181.107 38.129 185.287C33.9615 185.721 29.8736 186.726 25.98 188.274C21.893 189.924 17.761 190.484 13.459 191.305C9.41455 191.963 5.59592 193.612 2.34401 196.105C0.834008 197.322 -0.733992 198.747 0.374008 200.751C1.08301 202.033 2.36101 202.359 3.46401 203.104C3.68701 202.822 3.04201 202.224 2.92401 202.059C3.85101 202.249 3.82401 202.682 4.50001 203.059C5.05687 203.294 5.6339 203.478 6.22401 203.609C7.80601 204.177 8.58301 205.595 10.147 205.993C10.639 206.118 11.282 206.417 11.785 206.503C12.385 206.603 12.842 206.341 13.454 206.453C13.7817 206.669 14.1444 206.827 14.526 206.92C14.778 206.803 15.0267 206.68 15.272 206.55C16.0648 206.734 16.7995 207.112 17.41 207.65C17.458 207.077 17.389 206.482 17.931 206.108C18.143 206.665 17.801 207.018 18.378 207.401C19.11 207.887 20.072 207.28 20.727 206.973C20.912 208.825 25.2 208.715 26.559 208.689C28.441 208.652 30.321 207.906 32.219 208.323C33.188 208.535 34.219 208.757 35.186 209.033C36.347 209.364 37.751 209.661 38.893 210.08C39.347 210.247 39.904 210.78 40.388 210.744C40.773 210.715 40.876 210.144 41.325 210.163C41.832 210.182 42.003 210.746 42.441 210.917C43.098 211.171 43.703 210.688 44.327 210.932C44.552 211.019 44.856 211.396 45.143 211.518C45.729 211.661 46.3262 211.754 46.928 211.796C47.5566 211.864 48.1889 211.893 48.821 211.88C49.296 211.914 49.286 212.234 49.513 212.254C49.774 212.278 50.228 211.38 50.579 211.254C51.089 211.062 52.016 211.519 52.536 211.599C48.7241 216.68 44.2712 221.247 39.288 225.186C33.971 229.454 28.526 233.716 22.825 237.46C17.648 240.86 12.637 243.799 8.62501 248.596C5.24101 252.642 -0.146992 256.97 0.684008 262.835C1.51501 268.7 7.87601 271.079 12.974 272.197C19.386 273.604 25.986 273.038 32.415 273.829C35.2605 274.098 38.127 274.054 40.963 273.699C44.223 273.359 47.016 271.232 49.819 269.694C54.86 266.927 59.169 263.225 64.134 260.372C70.351 256.799 76.502 253.014 83.317 250.621C86.488 249.508 89.751 248.237 92.309 245.948C92.6439 245.538 93.0086 245.154 93.4 244.798C94.131 244.321 94.327 244.804 94.751 244.66C95.077 244.549 95.394 244.196 95.676 244.09C96.2683 243.901 96.8953 243.848 97.511 243.933C97.3086 243.84 97.1292 243.704 96.9856 243.534C96.842 243.364 96.7378 243.165 96.6805 242.949C96.6231 242.734 96.6141 242.509 96.6539 242.29C96.6938 242.071 96.7816 241.864 96.911 241.683C98.132 240.257 98.343 242.536 98.801 243.063C99.19 242.563 99.041 242.119 98.942 241.551L99.928 242.202C99.7074 241.144 99.9126 240.041 100.499 239.133C100.991 238.586 101.279 237.886 101.317 237.151C102.985 238.673 103.311 234.978 103.461 233.631C103.606 232.325 103.461 231.387 104.322 230.244C105.365 229.121 106.54 228.129 107.822 227.289C109.672 225.783 111.707 223.882 114.265 225.326C116.284 226.466 117.383 229.262 119.278 230.698C120.427 231.57 121.64 231.657 122.373 233.008C122.965 234.1 123.158 235.408 123.717 236.529C125.106 239.457 126.975 242.132 129.246 244.443C131.317 246.384 133.975 246.374 136.398 247.578C138.799 248.855 141.281 249.973 143.829 250.925C146.602 251.869 149.593 252.27 152.293 253.413C153.682 254.001 154.924 254.886 156.325 255.449C157.836 256.056 159.425 256.484 160.959 257.04C167.026 259.24 172.959 261.946 179.336 263.167C182.163 263.708 184.78 265.18 187.627 265.49C188.778 265.606 189.919 265.809 191.04 266.097C192.915 266.576 192.518 266.831 193.209 268.397C194.345 270.971 197.12 269.447 199.26 269.511C202.684 269.611 206.06 269.061 209.475 269.034C215.421 269.097 221.338 268.191 226.993 266.352C232.799 264.381 239.41 259.633 234.584 253.071" fill="#A5B5C1"/>
<path fill-rule="evenodd" clip-rule="evenodd" d="M165.471 51.978C165.745 52.11 165.553 52.06 165.471 51.978Z" fill="black"/>
<path fill-rule="evenodd" clip-rule="evenodd" d="M60.16 161.596C61.46 160.28 66.983 160.546 67.401 162.896C67.866 165.524 62.93 169.496 61.123 170.605C58.798 172.037 55.96 172.305 56.373 168.705C56.8281 165.984 58.1576 163.485 60.16 161.587M64.722 158.878C64.891 159.606 63.649 159.359 63.307 159.186C63.146 158.855 64.553 158.148 64.722 158.878ZM55.195 163.696C56.295 163.796 57.559 162.027 58.395 161.425C58.762 161.993 56.339 165.115 56.073 165.825C55.407 167.605 55.037 169.854 55.944 171.625C58.597 176.813 65.386 169.405 67.084 166.817C68.272 165.007 69.094 162.763 67.416 160.989C66.816 160.357 65.832 160.182 65.277 159.582C64.546 158.792 65.121 157.773 63.653 157.945C62.639 158.064 61.423 158.978 60.438 159.309C59.2679 159.654 58.1577 160.177 57.146 160.859C56.912 161.026 53.839 163.567 55.2 163.69" fill="#FF9D8B"/>
<path fill-rule="evenodd" clip-rule="evenodd" d="M133.078 165.448C132.385 169.012 128.853 172.669 125.137 172.811C121.437 172.952 120.237 169.074 120.891 165.984C121.448 163.348 123.726 158.768 126.977 159.273C129.532 159.673 133.672 162.393 133.077 165.448M130.72 159.49C128.373 157.674 125.131 156.834 122.411 158.275C121.519 158.748 117.959 160.831 119.043 162.241C120.504 161.109 121.764 159.541 123.662 159.162C123.343 160.633 121.52 161.957 120.878 163.39C120.101 165.09 119.745 166.952 119.841 168.819C120.06 172.093 122.253 174.637 125.647 174.186C128.755 173.774 131.472 171.392 132.955 168.714C134.935 165.138 133.819 161.887 130.721 159.49" fill="#FF7D64"/>
<path fill-rule="evenodd" clip-rule="evenodd" d="M108.929 173.549C107.269 176.188 104.733 178.159 101.765 179.114C97.951 180.103 99.023 176.952 100.165 174.69C101.173 172.69 102.901 169.251 105.533 169.269C106.698 169.337 107.836 169.65 108.873 170.185C110.416 171.127 109.811 172.247 108.931 173.549M105.372 168.112C105.972 167.444 108.627 164.581 108.983 166.812C109.745 165.928 109.144 165.195 108.168 165.101C106.991 164.988 105.703 166.301 104.854 166.951C103.156 168.196 101.712 169.755 100.6 171.543C99.322 173.615 96.064 178.297 98.916 180.352C101.998 182.574 106.484 178.47 108.416 176.352C109.65 174.998 111.285 173.011 110.816 171.025C110.24 168.587 107.404 168.331 105.376 168.108" fill="#FF7D64"/>
<path fill-rule="evenodd" clip-rule="evenodd" d="M92.219 128.243C90.494 130.211 86.991 133.078 84.104 132.743C81.471 132.435 82.504 129.48 83.431 128.05C84.831 125.901 86.706 123.883 89.416 123.765C90.586 123.714 92.102 123.738 93.007 124.624C94.244 125.834 93.13 127.207 92.219 128.246M92.036 122.779C90.016 122.079 89.222 121.815 87.259 122.924C85.6785 123.831 84.2984 125.049 83.202 126.505C81.583 128.646 79.95 133.461 84.107 134.064C88.668 134.725 99.517 125.364 92.036 122.779Z" fill="#FF7D64"/>
<path fill-rule="evenodd" clip-rule="evenodd" d="M98.252 135.061C96.9624 136.458 95.2834 137.436 93.432 137.868C94.223 136.103 95.989 132.248 98.083 131.711C99.048 131.463 100.147 131.788 100.068 132.887C100.011 133.682 98.768 134.533 98.252 135.062M99.941 130.397C98.855 129.852 99.197 129.48 97.933 129.908C96.8261 130.268 95.7852 130.807 94.851 131.501C94.399 131.868 92.99 133.169 93.162 133.832C93.474 135.032 94.525 133.191 94.802 132.832C95.275 133.218 92.854 136.682 92.711 137.252C92.174 139.375 93.841 139.6 95.474 138.905C97.674 137.969 104.198 132.526 99.941 130.393" fill="#FF7D64"/>
<path fill-rule="evenodd" clip-rule="evenodd" d="M132.232 187.524C132.395 186.117 132.626 184.624 133.917 183.838C135.081 183.125 136.286 183.229 136.458 184.689C136.409 185.553 136.185 186.399 135.8 187.173C135.414 187.948 134.874 188.636 134.214 189.196C132.714 190.227 132.428 188.942 132.232 187.523M134.156 190.723C137.23 188.923 139.168 180.674 133.501 182.986C130.281 184.3 131.465 192.297 134.156 190.723Z" fill="#FF7D64"/>
<path fill-rule="evenodd" clip-rule="evenodd" d="M107.9 156.515C108.097 156.098 108.379 155.727 108.727 155.424C109.075 155.121 109.483 154.894 109.923 154.757C109.268 155.376 108.598 155.947 107.9 156.515ZM108.609 154.066C107.909 154.766 106.317 155.83 106.54 157.03C106.74 158.13 107.581 158.062 108.34 157.721C109.931 157.006 110.817 153.874 112.481 153.581C110.635 152.411 110.204 152.465 108.609 154.067" fill="#FF7D64"/>
<path fill-rule="evenodd" clip-rule="evenodd" d="M108.854 91.872C108.943 95.2053 109.023 98.5403 109.094 101.877C109.12 103.049 108.84 104.72 109.194 105.842C109.349 106.336 110.754 108.48 111.252 108.619C112.996 109.105 112.372 104.733 112.385 103.657C112.428 100.025 112.374 96.39 112.36 92.757C112.352 90.886 112.88 75.193 110.452 75.27C110.034 75.284 109.003 77.078 108.852 77.437C108.502 78.7424 108.4 80.102 108.552 81.445C108.585 84.919 108.765 88.398 108.858 91.871" fill="#FF7D64"/>
<path fill-rule="evenodd" clip-rule="evenodd" d="M123.557 101.593C123.694 102.515 123.622 104.053 124.657 104.531C125.557 104.947 125.906 104.452 126.244 103.679C127.021 101.902 126.744 99.184 126.726 97.347C126.697 93.705 126.287 90.078 126.004 86.447C125.879 84.855 126.138 83.256 125.939 81.59C125.852 80.859 125.765 77.918 124.409 78.055C123.184 78.179 123.294 81.261 123.227 82.055C122.568 88.5572 122.678 95.1144 123.553 101.591" fill="#FF7D64"/>
<path fill-rule="evenodd" clip-rule="evenodd" d="M181.395 177.513C180.876 180.168 172.402 189.413 170.269 184.243C169.003 181.175 171.747 177.835 173.887 176.059C175.211 174.959 176.866 173.881 178.67 174.214C180.202 174.497 181.725 175.826 181.395 177.514M177.019 172.752C176.419 172.893 171.419 176.406 171.372 176.36C170.938 175.924 174.093 171.221 174.418 170.809C177.093 167.419 178.868 169.986 180.541 172.65C180.185 171.059 179.204 168.75 177.567 168.076C175.499 167.227 173.886 169.323 172.891 170.831C171.597 172.968 170.602 175.271 169.933 177.678C169.587 178.805 169.108 179.886 168.505 180.898C167.882 181.918 166.792 183.043 166.953 184.334C167.752 183.738 168.406 182.969 168.866 182.084C169.488 182.336 169.275 184.321 169.401 184.826C169.521 185.447 169.827 186.016 170.278 186.459C170.729 186.902 171.304 187.198 171.927 187.307C174.427 187.714 177.127 185.401 178.796 183.83C180.557 182.175 182.453 179.906 182.438 177.359C182.422 174.698 179.804 172.092 177.023 172.75" fill="#FF7D64"/>
<path fill-rule="evenodd" clip-rule="evenodd" d="M183.797 130.089C182.379 132.259 179.89 134.861 177.257 135.366C175.324 135.736 174.049 134.304 174.825 132.366C175.481 130.732 177.716 129.7 179.18 128.981C180.342 128.41 185.759 127.081 183.796 130.081M182.753 126.531C179.848 126.421 177.505 128.522 175.338 130.198C175.823 128.158 176.924 126.316 178.492 124.924C180.612 123.218 182.623 124.277 184.855 125.131C184.304 123.393 181.832 122.768 180.255 123.013C178.264 123.323 176.832 125.023 175.825 126.668C174.625 128.63 174.213 130.942 172.799 132.783C172.152 133.625 168.143 136.777 169.051 138.066L173.543 133.298C173.931 135.176 174.359 137.315 176.757 137.133C178.672 136.987 180.857 135.359 182.257 134.114C184.065 132.507 187.625 126.714 182.75 126.532" fill="#FF7D64"/>
<path fill-rule="evenodd" clip-rule="evenodd" d="M142.058 145.068C140.827 145.634 138.118 146.403 137.43 144.703C136.474 142.342 139.55 138.203 141.013 136.627C141.913 135.659 142.525 135.158 143.78 135.784C145.021 136.47 146.02 137.523 146.64 138.799C147.466 141.145 143.982 144.183 142.057 145.068M144.881 133.728C145.881 133.954 146.006 135.228 144.753 134.738C143.814 134.372 143.596 133.438 144.881 133.728ZM146.139 135.521C145.765 134.379 146.526 132.589 144.683 132.506C143.639 132.459 141.726 133.521 140.814 133.953C139.498 134.521 138.404 135.504 137.701 136.753C137.09 137.944 137.526 138.258 138.458 137.269C138.572 137.347 136.351 143.076 136.331 143.65C136.261 144.222 136.33 144.802 136.534 145.34C136.737 145.879 137.069 146.36 137.499 146.743C137.93 147.125 138.447 147.397 139.006 147.535C139.565 147.673 140.15 147.674 140.709 147.536C143.109 147.109 145.266 145.148 146.585 143.17C147.306 142.182 147.744 141.015 147.85 139.796C147.927 137.914 146.673 137.158 146.138 135.524" fill="#FF7D64"/>
<path fill-rule="evenodd" clip-rule="evenodd" d="M157.637 134.558C156.625 132.61 158.969 129.333 161.067 130.291C165.436 132.288 158.964 137.112 157.637 134.558ZM161.562 132.015C161.093 132.034 158.129 133.179 158.562 133.955C159.163 135.02 161.327 132.443 161.561 132.016L161.562 132.015Z" fill="#FF7D64"/>
<path fill-rule="evenodd" clip-rule="evenodd" d="M18.262 128.416C18.145 127.587 16.285 128.791 16.296 129.325C16.603 128.71 18.506 130.145 18.262 128.416Z" fill="black"/>
<path fill-rule="evenodd" clip-rule="evenodd" d="M119.953 65.726C122.32 65.552 119.304 53.609 117.579 54.665C115.709 55.81 117.779 65.885 119.953 65.726Z" fill="#006698"/>
<path fill-rule="evenodd" clip-rule="evenodd" d="M124.377 60.152C126.595 60.47 126.242 55.377 125.05 54.466C122.85 52.783 121.685 59.766 124.377 60.152Z" fill="#006698"/>
</svg>
